<?xml version="1.0" encoding="UTF-8"?>
<svg viewBox="0 0 500 500" xmlns="http://www.w3.org/2000/svg">
<path d="m234.15 41.374c5.426-0.3042 11.097 0.0722 16.545 0.0749 6.239 0.0031 13.681-0.8043 19.755 0.4024 4.016 0.798 7.877 2.4482 11.058 5.0497 5.237 4.2829 8.272 10.863 8.534 17.56 0.123 3.1549-0.156 6.3524 0.2 9.4927l0.041 0.3398c2.046 2.318 3.891 4.4713 3.929 7.756 0.039 3.2818-1.674 5.311-3.788 7.5503-0.521 3.9777-0.352 8.1312-0.371 12.14-0.016 3.647-0.153 7.355 0.011 10.994 0.104 2.312 0.433 5.115 2.265 6.714 4.223 3.685 15.228 5.675 20.636 7.161 3.493 0.96 6.924 2.143 10.419 3.101 7.058 1.937 14.173 3.372 20.795 6.633 4.978 2.452 9.259 5.915 13.299 9.674 8.034 7.476 14.981 20.28 16.275 31.238 0.728 6.163 0.312 12.51 0.539 18.711 2.44 1.079 5.034 2.174 7.291 3.603 3.824 2.422 7.004 6.989 7.979 11.414 1.043 4.737 1.068 14.102 0.026 18.891-0.437 2.068-1.249 4.037-2.395 5.812-3.082 4.733-7.534 7.62-12.998 8.776 0.361 9.387 8e-3 18.92 2e-3 28.319l3e-3 68.323c2e-3 12.324-0.391 24.792 0.135 37.098 2.108 0.519 4.059 1.221 5.956 2.285 4.475 2.539 7.748 6.764 9.088 11.732 0.85 3.177 0.829 6.574 0.838 9.843 0.023 8.779-0.906 15.959-8.777 21.284-1.94 1.312-5.364 1.548-6.925 3.121-0.414 0.417-4.434 10.426-5.632 12.496-5.425 9.376-14.691 15.788-25.042 18.492-6.339 1.655-12.78 1.32-19.27 1.316l-16.242-6e-3 -49.839 4e-3 -61.706-5e-3 -20.241 6e-3c-4.052-1e-3 -8.164 0.116-12.208-0.144-4.978-0.359-9.862-1.535-14.457-3.483-10.037-4.243-17.676-12.591-21.83-22.569-0.566-1.36-1.378-5.138-2.175-6.041-1.055-1.194-5.099-2.085-6.768-3.089-4.281-2.574-7.596-6.969-8.728-11.837-1.096-4.719-0.996-14.352 0.065-19.056 0.466-2.149 1.304-4.2 2.476-6.06 2.955-4.616 7.43-7.217 12.714-8.359 0.443-7.48-0.915-25.067 1.267-30.743 1.728-1.583 4.052-2.751 6.406-2.934 2.155-0.168 4.515 0.509 6.144 1.956 4.713 4.189 2.662 13.537 2.581 19.133-0.059 4.092 0.076 8.173 0.237 12.262 3.415-0.847 9.695-0.359 13.418-0.365l146.02 0.544 41.269 0.017c2.786 9e-3 5.573-0.04 8.357-0.147 1.66-0.068 3.411-0.446 5.051-0.168 0.541 0.091 0.779 0.194 1.303-0.045 0.699-2.562 0.293-9.291 0.295-12.312l0.02-22.995-0.016-62.314c-3e-3 -11.75 0.202-23.543-0.069-35.287-18.066 0.125-36.133 0.123-54.198-6e-3l-96.683 0.022-46.081 2e-3c-5.095-5e-3 -14.327 0.618-18.861-0.109 0.396 4.596-0.039 9.289-0.056 13.904l-0.014 27.747c1e-3 7.017-0.115 14.062 0.036 21.076 0.094 4.336 0.623 8.71 0.353 13.045-0.106 1.703-0.812 4.127-1.903 5.46-1.369 1.674-3.334 3.075-5.529 3.214-2.533 0.16-5.28-0.693-7.147-2.444-0.944-0.885-1.665-2.018-1.843-3.317-0.424-3.099-0.204-6.404-0.191-9.53l0.023-14.868-0.056-54.419-0.207-0.042c-0.115-0.025-0.229-0.052-0.343-0.076-1.217-0.251-2.248-0.613-3.378-1.128-4.601-2.1-9.196-6.374-10.924-11.21-1.966-5.505-1.815-19.737 0.866-25.037 2.879-5.692 7.785-8.684 13.649-10.6 0.555-2.469 0.372-5.159 0.397-7.677 0.066-6.679 0.141-13.246 2.329-19.639 4.822-14.086 14.577-26.812 28.313-33.194 5.375-2.497 11.092-3.732 16.768-5.285 7.911-2.164 15.863-4.383 23.72-6.729 3.639-1.087 8.87-2.324 11.492-5.256 0.862-0.963 1.049-2.228 1.206-3.469 0.464-3.65 0.136-7.644 0.129-11.335-9e-3 -4.734 0.222-9.5255-0.056-14.25-0.706-0.7459-1.438-1.4947-2.085-2.2921-1.413-1.7406-2.089-4.1261-1.849-6.3493 0.307-2.8495 1.844-4.5458 3.929-6.2964 0.653-10.396-0.989-18.001 6.927-26.219 4.433-4.6022 11.223-6.926 17.499-7.0535zm-72.067 125.61c-2.5-0.019-13.689-0.704-15.07 0.8-0.885 0.964-1.333 2.441-1.766 3.65-3.027 8.452-2.802 16.182-3.27 24.9 7.247-0.482 14.715-0.063 21.989-0.061h43.481l150.43-0.045c0.583-12.772-1.344-26.023-10.228-35.824-3.471-3.83-7.94-7.509-12.65-9.704-2.886-1.345-6.14-1.888-9.19-2.755-3.164-0.898-6.254-2.06-9.429-2.915l-17.437-4.811c-4.582-1.295-9.002-2.123-13.164-4.56-4.829-2.828-8.859-6.994-10.584-12.372-1.878-5.855-1.391-12.468-1.39-18.55-9e-3 -4.9162 9e-3 -9.8324 0.055-14.748l-33.039 0.0451c-4.639 0.0061-9.702 0.5487-14.286 0.0414-0.042 0.0815-0.094 0.1585-0.126 0.2445-0.201 0.5371 0.247 20.637 0.056 23.793-0.073 1.221-1.118 8.191-1.058 8.504 0.395-0.025 0.631-0.083 1.01-0.212 0.919-0.315 25.262-0.297 27.628-0.115 1.31 0.101 2.65 0.449 3.818 1.052 2.062 1.064 3.703 2.976 4.301 5.231 0.591 2.225 0.089 4.534-1.083 6.483-1.01 1.68-2.537 3.145-4.497 3.579-4.038 0.895-17.224 0.325-22.116 0.326l-17.601 0.012c-3.698 6e-3 -7.53-0.158-11.205 0.26-4.467 0.509-9.064 2.495-13.427 3.673-4.908 1.324-9.844 2.675-14.767 3.93-4.564 1.164-9.319 1.979-13.553 4.1 7.693-0.429 15.292-0.295 22.988-0.351l52.347 0.053 40.891-2e-3c3.564 7e-3 7.131 0.04 10.695 2e-3 2.314-0.025 4.686-0.203 6.994-0.035 2.116 0.154 4.054 0.397 5.677 1.879 1.731 1.581 2.787 3.954 2.833 6.294 0.049 2.433-0.952 4.638-2.68 6.331-1.067 1.045-2.157 1.538-3.628 1.68-5.446 0.527-11.167 0.203-16.642 0.194l-28.641-0.019-92.663 0.022zm188.08 267.81c2.439-2.305 4.654-4.754 6.158-7.791l-9e-3 -0.441c-16.856 0.196-33.713 0.245-50.569 0.147l-85.759-0.025-49.796 2e-3c-6.052 0.022-12.104-0.011-18.155-0.099-2.822-0.034-5.713 0.104-8.523-0.134 3.457 6.431 7.812 11.205 14.637 14.148 2.025 0.873 4.743 0.764 6.92 0.822 10.686 0.287 21.436 0.06 32.128 0.064l61.521-4e-3 50.573-0.011c8.94-1e-3 17.965 0.273 26.892-0.08 2.202-0.087 4.102-0.271 6.155-1.152 2.156-0.925 6.549-3.522 7.827-5.446zm-215.1-221.93c-2.273 0.106-4.868-0.066-7.033 0.645-0.12 0.039-0.242 0.073-0.363 0.111-0.073 0.022-0.145 0.047-0.217 0.071-1.263 3.184-2.188 9.026-0.763 12.289 0.249 0.57 0.721 1.302 1.307 1.575 1.312 0.611 3.649 0.625 5.1 0.667 9.015 0.263 18.111 0.02 27.134 0.02l204.71 6e-3c2.095 7e-3 5.795 0.531 7.325-1.089 1.979-2.095 1.897-6.307 1.725-9.005-0.085-1.338-0.364-3.372-1.522-4.259-1.573-1.205-4.901-1.127-6.822-1.153-13.844-0.189-27.721-0.022-41.568-0.023l-107.73 0.067-55.954-0.06-16.46-6e-3c-2.868-1e-3 -6.037-0.23-8.876 0.144zm102.41-154.24c-2.958 0.0374-6.768-0.316-8.997 2.0159-2.504 2.6197-2.087 9.3732-2.273 12.912 4.569-0.4191 9.293-0.1818 13.882-0.1702l22.978 0.0368c3.616-0.0203 7.232-0.0625 10.847-0.1263-0.299-5.5063 0.295-9.6564-3.634-14.109-5.384-1.1158-11.419-0.674-16.905-0.6592-5.29 0.0142-10.613-0.0803-15.898 0.0996zm-108.24 335.7c-0.929 0.362-1.368 0.547-1.781 1.521-1.333 3.146-2.243 8.959-0.791 12.133 0.399 0.874 0.997 1.272 1.893 1.564 3.104 1.011 40.108 0.45 46.111 0.452l134.69-1e-3 40.496-4e-3c6.161 4e-3 14.846 0.547 20.66-0.243 1.154-0.356 2.035-0.76 2.598-1.891 1.306-2.625 1.358-7.894 0.311-10.664-0.439-1.162-1.203-2.109-2.355-2.619-0.648-0.288-1.373-0.435-2.079-0.468-1.771-0.084-3.582 0.094-5.36 0.099l-13.029 9e-3 -42.255-1e-3 -121.82 3e-3 -38.679 0.025c-6.099 4e-3 -12.558-0.49-18.619 0.085z" fill="#008EFF"/>
<path d="m310.17 252.33c7.039-1.002 14.886 1.124 20.646 5.191 5.433 3.836 9.77 10.471 10.878 17.049 1.233 7.318 0.67 14.998 0.519 22.375-0.072 6.612-0.097 13.224-0.075 19.836 3e-3 4.524-0.051 9.061 0.054 13.584 0.124 5.325 0.58 10.584-0.124 15.894-0.576 4.34-1.994 8.642-4.565 12.223-4.675 6.512-10.888 10.243-18.718 11.478-7.878 0.32-15.052 0.042-21.558-4.971-5.355-4.125-10.124-10.162-11.006-17.046-0.618-4.82-0.37-9.861-0.358-14.716l0.043-22.058-0.072-21.37c-0.021-5.093-0.333-10.52 0.529-15.551 0.697-4.067 2.56-8.101 5.076-11.362 4.475-5.801 11.478-9.62 18.731-10.556zm6.26 101c3.194-0.891 6.583-3.465 8.226-6.369 0.868-1.534 0.993-3.807 1.104-5.545 0.215-3.352 0.093-6.773 0.094-10.135l-7e-3 -18.309-0.014-20.129c-4e-3 -3.729 0.111-7.507-0.093-11.23-0.096-1.753-0.276-3.661-0.795-5.346-0.763-2.481-3.489-5.126-5.726-6.225-2.487-1.222-5.007-1.154-7.687-0.964-3.081 1.164-6.214 2.739-7.654 5.907-1.144 2.518-1.399 6.342-1.586 9.084-0.582 8.551-0.234 17.349-0.257 25.927-0.029 10.567-0.462 21.52 0.576 32.035 0.195 1.979 0.556 4.166 1.347 6.003 1.043 2.42 4.096 4.07 6.483 4.927 1.761 0.631 3.466 0.947 5.313 0.519 0.139-0.032 0.278-0.059 0.417-0.09l0.259-0.06z" fill="#008EFF"/>
</svg>
