<?xml version="1.0" encoding="utf-8" ?>
<svg xmlns="http://www.w3.org/2000/svg" xmlns:xlink="http://www.w3.org/1999/xlink" width="500" height="500">
	<path fill="#008EFF" d="M234.152 41.3739C239.578 41.0697 245.249 41.4461 250.697 41.4488C256.936 41.4519 264.378 40.6445 270.452 41.8512C274.468 42.6492 278.329 44.2994 281.51 46.9009C286.747 51.1838 289.782 57.764 290.044 64.461C290.167 67.6159 289.888 70.8134 290.244 73.9537L290.285 74.2935C292.331 76.6115 294.176 78.7648 294.214 82.0495C294.253 85.3313 292.54 87.3605 290.426 89.5998C289.905 93.5775 290.074 97.731 290.055 101.74C290.039 105.387 289.902 109.095 290.066 112.734C290.17 115.046 290.499 117.849 292.331 119.448C296.554 123.133 307.559 125.123 312.967 126.609C316.46 127.569 319.891 128.752 323.386 129.71C330.444 131.647 337.559 133.082 344.181 136.343C349.159 138.795 353.44 142.258 357.48 146.017C365.514 153.493 372.461 166.297 373.755 177.255C374.483 183.418 374.067 189.765 374.294 195.966C376.734 197.045 379.328 198.14 381.585 199.569C385.409 201.991 388.589 206.558 389.564 210.983C390.607 215.72 390.632 225.085 389.59 229.874C389.153 231.942 388.341 233.911 387.195 235.686C384.113 240.419 379.661 243.306 374.197 244.462C374.558 253.849 374.205 263.382 374.199 272.781L374.202 341.104C374.204 353.428 373.811 365.896 374.337 378.202C376.445 378.721 378.396 379.423 380.293 380.487C384.768 383.026 388.041 387.251 389.381 392.219C390.231 395.396 390.21 398.793 390.219 402.062C390.242 410.841 389.313 418.021 381.442 423.346C379.502 424.658 376.078 424.894 374.517 426.467C374.103 426.884 370.083 436.893 368.885 438.963C363.46 448.339 354.194 454.751 343.843 457.455C337.504 459.11 331.063 458.775 324.573 458.771L308.331 458.765L258.492 458.769L196.786 458.764L176.545 458.77C172.493 458.769 168.381 458.886 164.337 458.626C159.359 458.267 154.475 457.091 149.88 455.143C139.843 450.9 132.204 442.552 128.05 432.574C127.484 431.214 126.672 427.436 125.875 426.533C124.82 425.339 120.776 424.448 119.107 423.444C114.826 420.87 111.511 416.475 110.379 411.607C109.283 406.888 109.383 397.255 110.444 392.551C110.91 390.402 111.748 388.351 112.92 386.491C115.875 381.875 120.35 379.274 125.634 378.132C126.077 370.652 124.719 353.065 126.901 347.389C128.629 345.806 130.953 344.638 133.307 344.455C135.462 344.287 137.822 344.964 139.451 346.411C144.164 350.6 142.113 359.948 142.032 365.544C141.973 369.636 142.108 373.717 142.269 377.806C145.684 376.959 151.964 377.447 155.687 377.441L301.71 377.985L342.979 378.002C345.765 378.011 348.552 377.962 351.336 377.855C352.996 377.787 354.747 377.409 356.387 377.687C356.928 377.778 357.166 377.881 357.69 377.642C358.389 375.08 357.983 368.351 357.985 365.33L358.005 342.335L357.989 280.021C357.986 268.271 358.191 256.478 357.92 244.734C339.854 244.859 321.787 244.857 303.722 244.728L207.039 244.75L160.958 244.752C155.863 244.747 146.631 245.37 142.097 244.643C142.493 249.239 142.058 253.932 142.041 258.547L142.027 286.294C142.028 293.311 141.912 300.356 142.063 307.37C142.157 311.706 142.686 316.08 142.416 320.415C142.31 322.118 141.604 324.542 140.513 325.875C139.144 327.549 137.179 328.95 134.984 329.089C132.451 329.249 129.704 328.396 127.837 326.645C126.893 325.76 126.172 324.627 125.994 323.328C125.57 320.229 125.79 316.924 125.803 313.798L125.826 298.93L125.77 244.511L125.563 244.469C125.448 244.444 125.334 244.417 125.22 244.393C124.003 244.142 122.972 243.78 121.842 243.265C117.241 241.165 112.646 236.891 110.918 232.055C108.952 226.55 109.103 212.318 111.784 207.018C114.663 201.326 119.569 198.334 125.433 196.418C125.988 193.949 125.805 191.259 125.83 188.741C125.896 182.062 125.971 175.495 128.159 169.102C132.981 155.016 142.736 142.29 156.472 135.908C161.847 133.411 167.564 132.176 173.24 130.623C181.151 128.459 189.103 126.24 196.96 123.894C200.599 122.807 205.83 121.57 208.452 118.638C209.314 117.675 209.501 116.41 209.658 115.169C210.122 111.519 209.794 107.525 209.787 103.834C209.778 99.1 210.009 94.3085 209.731 89.5838C209.025 88.8379 208.293 88.0891 207.646 87.2917C206.233 85.5511 205.557 83.1656 205.797 80.9424C206.104 78.0929 207.641 76.3966 209.726 74.646C210.379 64.2504 208.737 56.6449 216.653 48.4274C221.086 43.8252 227.876 41.5014 234.152 41.3739ZM162.085 166.983C159.585 166.964 148.396 166.279 147.015 167.783C146.13 168.747 145.682 170.224 145.249 171.433C142.222 179.885 142.447 187.615 141.979 196.333C149.226 195.851 156.694 196.27 163.968 196.272L207.449 196.272L357.876 196.227C358.459 183.455 356.532 170.204 347.648 160.403C344.177 156.573 339.708 152.894 334.998 150.699C332.112 149.354 328.858 148.811 325.808 147.944C322.644 147.046 319.554 145.884 316.379 145.029L298.942 140.218C294.36 138.923 289.94 138.095 285.778 135.658C280.949 132.83 276.919 128.664 275.194 123.286C273.316 117.431 273.803 110.818 273.804 104.736C273.795 99.8198 273.813 94.9036 273.859 89.9877L240.82 90.0328C236.181 90.0389 231.118 90.5815 226.534 90.0742C226.492 90.1557 226.44 90.2327 226.408 90.3187C226.207 90.8558 226.655 110.956 226.464 114.112C226.391 115.333 225.346 122.303 225.406 122.616C225.801 122.591 226.037 122.533 226.416 122.404C227.335 122.089 251.678 122.107 254.044 122.289C255.354 122.39 256.694 122.738 257.862 123.341C259.924 124.405 261.565 126.317 262.163 128.572C262.754 130.797 262.252 133.106 261.08 135.055C260.07 136.735 258.543 138.2 256.583 138.634C252.545 139.529 239.359 138.959 234.467 138.96L216.866 138.972C213.168 138.978 209.336 138.814 205.661 139.232C201.194 139.741 196.597 141.727 192.234 142.905C187.326 144.229 182.39 145.58 177.467 146.835C172.903 147.999 168.148 148.814 163.914 150.935C171.607 150.506 179.206 150.64 186.902 150.584L239.249 150.637L280.14 150.635C283.704 150.642 287.271 150.675 290.835 150.637C293.149 150.612 295.521 150.434 297.829 150.602C299.945 150.756 301.883 150.999 303.506 152.481C305.237 154.062 306.293 156.435 306.339 158.775C306.388 161.208 305.387 163.413 303.659 165.106C302.592 166.151 301.502 166.644 300.031 166.786C294.585 167.313 288.864 166.989 283.389 166.98L254.748 166.961L162.085 166.983ZM350.162 434.79C352.601 432.485 354.816 430.036 356.32 426.999L356.311 426.558C339.455 426.754 322.598 426.803 305.742 426.705L219.983 426.68L170.187 426.682C164.135 426.704 158.083 426.671 152.032 426.583C149.21 426.549 146.319 426.687 143.509 426.449C146.966 432.88 151.321 437.654 158.146 440.597C160.171 441.47 162.889 441.361 165.066 441.419C175.752 441.706 186.502 441.479 197.194 441.483L258.715 441.479L309.288 441.468C318.228 441.467 327.253 441.741 336.18 441.388C338.382 441.301 340.282 441.117 342.335 440.236C344.491 439.311 348.884 436.714 350.162 434.79ZM135.06 212.857C132.787 212.963 130.192 212.791 128.027 213.502C127.907 213.541 127.785 213.575 127.664 213.613C127.591 213.635 127.519 213.66 127.447 213.684C126.184 216.868 125.259 222.71 126.684 225.973C126.933 226.543 127.405 227.275 127.991 227.548C129.303 228.159 131.64 228.173 133.091 228.215C142.106 228.478 151.202 228.235 160.225 228.235L213.46 228.237L364.938 228.241C367.033 228.248 370.733 228.772 372.263 227.152C374.242 225.057 374.16 220.845 373.988 218.147C373.903 216.809 373.624 214.775 372.466 213.888C370.893 212.683 367.565 212.761 365.644 212.735C351.8 212.546 337.923 212.713 324.076 212.712L216.35 212.779L160.396 212.719L143.936 212.713C141.068 212.712 137.899 212.483 135.06 212.857ZM237.472 58.6166C234.514 58.654 230.704 58.3006 228.475 60.6325C225.971 63.2522 226.388 70.0057 226.202 73.545C230.771 73.1259 235.495 73.3632 240.084 73.3748L263.062 73.4116C266.678 73.3913 270.294 73.3491 273.909 73.2853C273.61 67.779 274.204 63.6289 270.275 59.1762C264.891 58.0604 258.856 58.5022 253.37 58.517C248.08 58.5312 242.757 58.4367 237.472 58.6166ZM129.233 394.319C128.304 394.681 127.865 394.866 127.452 395.84C126.119 398.986 125.209 404.799 126.661 407.973C127.06 408.847 127.658 409.245 128.554 409.537C131.658 410.548 168.662 409.987 174.665 409.989L309.359 409.988L349.855 409.984C356.016 409.988 364.701 410.531 370.515 409.741C371.669 409.385 372.55 408.981 373.113 407.85C374.419 405.225 374.471 399.956 373.424 397.186C372.985 396.024 372.221 395.077 371.069 394.567C370.421 394.279 369.696 394.132 368.99 394.099C367.219 394.015 365.408 394.193 363.63 394.198L350.601 394.207L308.346 394.206L186.531 394.209L147.852 394.234C141.753 394.238 135.294 393.744 129.233 394.319Z"/>
	<path fill="#008EFF" d="M310.173 252.329C317.212 251.327 325.059 253.453 330.819 257.52C336.252 261.356 340.589 267.991 341.697 274.569C342.93 281.887 342.367 289.567 342.216 296.944C342.144 303.556 342.119 310.168 342.141 316.78C342.144 321.304 342.09 325.841 342.195 330.364C342.319 335.689 342.775 340.948 342.071 346.258C341.495 350.598 340.077 354.9 337.506 358.481C332.831 364.993 326.618 368.724 318.788 369.959C310.91 370.279 303.736 370.001 297.23 364.988C291.875 360.863 287.106 354.826 286.224 347.942C285.606 343.122 285.854 338.081 285.866 333.226L285.909 311.168L285.837 289.798C285.816 284.705 285.504 279.278 286.366 274.247C287.063 270.18 288.926 266.146 291.442 262.885C295.917 257.084 302.92 253.265 310.173 252.329ZM316.433 353.329C319.627 352.438 323.016 349.864 324.659 346.96C325.527 345.426 325.652 343.153 325.763 341.415C325.978 338.063 325.856 334.642 325.857 331.28L325.85 312.971L325.836 292.842C325.832 289.113 325.947 285.335 325.743 281.612C325.647 279.859 325.467 277.951 324.948 276.266C324.185 273.785 321.459 271.14 319.222 270.041C316.735 268.819 314.215 268.887 311.535 269.077C308.454 270.241 305.321 271.816 303.881 274.984C302.737 277.502 302.482 281.326 302.295 284.068C301.713 292.619 302.061 301.417 302.038 309.995C302.009 320.562 301.576 331.515 302.614 342.03C302.809 344.009 303.17 346.196 303.961 348.033C305.004 350.453 308.057 352.103 310.444 352.96C312.205 353.591 313.91 353.907 315.757 353.479C315.896 353.447 316.035 353.42 316.174 353.389L316.433 353.329Z"/>
</svg>
